<svg width="384" height="604" viewBox="0 0 384 604" fill="none" xmlns="http://www.w3.org/2000/svg">
<path d="M61 589H46.6364V542.455H61.6364C66.1515 542.455 70.0152 543.386 73.2273 545.25C76.4394 547.098 78.9015 549.758 80.6136 553.227C82.3258 556.682 83.1818 560.818 83.1818 565.636C83.1818 570.485 82.3182 574.659 80.5909 578.159C78.8636 581.644 76.3485 584.326 73.0455 586.205C69.7424 588.068 65.7273 589 61 589ZM52.2727 584H60.6364C64.4848 584 67.6742 583.258 70.2045 581.773C72.7348 580.288 74.6212 578.174 75.8636 575.432C77.1061 572.689 77.7273 569.424 77.7273 565.636C77.7273 561.879 77.1136 558.644 75.8864 555.932C74.6591 553.205 72.8258 551.114 70.3864 549.659C67.947 548.189 64.9091 547.455 61.2727 547.455H52.2727V584ZM106.545 589.727C103.182 589.727 100.28 588.985 97.8409 587.5C95.4167 586 93.5455 583.909 92.2273 581.227C90.9242 578.53 90.2727 575.394 90.2727 571.818C90.2727 568.242 90.9242 565.091 92.2273 562.364C93.5455 559.621 95.3788 557.485 97.7273 555.955C100.091 554.409 102.848 553.636 106 553.636C107.818 553.636 109.614 553.939 111.386 554.545C113.159 555.152 114.773 556.136 116.227 557.5C117.682 558.848 118.841 560.636 119.705 562.864C120.568 565.091 121 567.833 121 571.091V573.364H94.0909V568.727H115.545C115.545 566.758 115.152 565 114.364 563.455C113.591 561.909 112.485 560.689 111.045 559.795C109.621 558.902 107.939 558.455 106 558.455C103.864 558.455 102.015 558.985 100.455 560.045C98.9091 561.091 97.7197 562.455 96.8864 564.136C96.053 565.818 95.6364 567.621 95.6364 569.545V572.636C95.6364 575.273 96.0909 577.508 97 579.341C97.9242 581.159 99.2045 582.545 100.841 583.5C102.477 584.439 104.379 584.909 106.545 584.909C107.955 584.909 109.227 584.712 110.364 584.318C111.515 583.909 112.508 583.303 113.341 582.5C114.174 581.682 114.818 580.667 115.273 579.455L120.455 580.909C119.909 582.667 118.992 584.212 117.705 585.545C116.417 586.864 114.826 587.894 112.932 588.636C111.038 589.364 108.909 589.727 106.545 589.727ZM153.886 561.909L149.068 563.273C148.765 562.47 148.318 561.689 147.727 560.932C147.152 560.159 146.364 559.523 145.364 559.023C144.364 558.523 143.083 558.273 141.523 558.273C139.386 558.273 137.606 558.765 136.182 559.75C134.773 560.72 134.068 561.955 134.068 563.455C134.068 564.788 134.553 565.841 135.523 566.614C136.492 567.386 138.008 568.03 140.068 568.545L145.25 569.818C148.371 570.576 150.697 571.735 152.227 573.295C153.758 574.841 154.523 576.833 154.523 579.273C154.523 581.273 153.947 583.061 152.795 584.636C151.659 586.212 150.068 587.455 148.023 588.364C145.977 589.273 143.598 589.727 140.886 589.727C137.326 589.727 134.379 588.955 132.045 587.409C129.712 585.864 128.235 583.606 127.614 580.636L132.705 579.364C133.189 581.242 134.106 582.652 135.455 583.591C136.818 584.53 138.598 585 140.795 585C143.295 585 145.28 584.47 146.75 583.409C148.235 582.333 148.977 581.045 148.977 579.545C148.977 578.333 148.553 577.318 147.705 576.5C146.856 575.667 145.553 575.045 143.795 574.636L137.977 573.273C134.78 572.515 132.432 571.341 130.932 569.75C129.447 568.144 128.705 566.136 128.705 563.727C128.705 561.758 129.258 560.015 130.364 558.5C131.485 556.985 133.008 555.795 134.932 554.932C136.871 554.068 139.068 553.636 141.523 553.636C144.977 553.636 147.689 554.394 149.659 555.909C151.644 557.424 153.053 559.424 153.886 561.909ZM177.778 554.091V558.636H159.688V554.091H177.778ZM164.96 545.727H170.324V579C170.324 580.515 170.544 581.652 170.983 582.409C171.438 583.152 172.013 583.652 172.71 583.909C173.422 584.152 174.172 584.273 174.96 584.273C175.551 584.273 176.036 584.242 176.415 584.182C176.794 584.106 177.097 584.045 177.324 584L178.415 588.818C178.051 588.955 177.544 589.091 176.892 589.227C176.241 589.379 175.415 589.455 174.415 589.455C172.9 589.455 171.415 589.129 169.96 588.477C168.521 587.826 167.324 586.833 166.369 585.5C165.43 584.167 164.96 582.485 164.96 580.455V545.727ZM185.847 589V554.091H191.21V589H185.847ZM188.574 548.273C187.528 548.273 186.627 547.917 185.869 547.205C185.127 546.492 184.756 545.636 184.756 544.636C184.756 543.636 185.127 542.78 185.869 542.068C186.627 541.356 187.528 541 188.574 541C189.619 541 190.513 541.356 191.256 542.068C192.013 542.78 192.392 543.636 192.392 544.636C192.392 545.636 192.013 546.492 191.256 547.205C190.513 547.917 189.619 548.273 188.574 548.273ZM206.398 568V589H201.034V554.091H206.216V559.545H206.67C207.489 557.773 208.731 556.348 210.398 555.273C212.064 554.182 214.216 553.636 216.852 553.636C219.216 553.636 221.284 554.121 223.057 555.091C224.83 556.045 226.208 557.5 227.193 559.455C228.178 561.394 228.67 563.848 228.67 566.818V589H223.307V567.182C223.307 564.439 222.595 562.303 221.17 560.773C219.746 559.227 217.792 558.455 215.307 558.455C213.595 558.455 212.064 558.826 210.716 559.568C209.383 560.311 208.33 561.394 207.557 562.818C206.784 564.242 206.398 565.97 206.398 568ZM248.744 589.818C246.532 589.818 244.525 589.402 242.722 588.568C240.919 587.72 239.487 586.5 238.426 584.909C237.366 583.303 236.835 581.364 236.835 579.091C236.835 577.091 237.229 575.47 238.017 574.227C238.805 572.97 239.858 571.985 241.176 571.273C242.494 570.561 243.949 570.03 245.54 569.682C247.146 569.318 248.759 569.03 250.381 568.818C252.502 568.545 254.222 568.341 255.54 568.205C256.873 568.053 257.843 567.803 258.449 567.455C259.07 567.106 259.381 566.5 259.381 565.636V565.455C259.381 563.212 258.767 561.47 257.54 560.227C256.328 558.985 254.487 558.364 252.017 558.364C249.456 558.364 247.449 558.924 245.994 560.045C244.54 561.167 243.517 562.364 242.926 563.636L237.835 561.818C238.744 559.697 239.956 558.045 241.472 556.864C243.002 555.667 244.669 554.833 246.472 554.364C248.29 553.879 250.078 553.636 251.835 553.636C252.956 553.636 254.244 553.773 255.699 554.045C257.169 554.303 258.585 554.841 259.949 555.659C261.328 556.477 262.472 557.712 263.381 559.364C264.29 561.015 264.744 563.227 264.744 566V589H259.381V584.273H259.108C258.744 585.03 258.138 585.841 257.29 586.705C256.441 587.568 255.313 588.303 253.903 588.909C252.494 589.515 250.775 589.818 248.744 589.818ZM249.562 585C251.684 585 253.472 584.583 254.926 583.75C256.396 582.917 257.502 581.841 258.244 580.523C259.002 579.205 259.381 577.818 259.381 576.364V571.455C259.153 571.727 258.653 571.977 257.881 572.205C257.123 572.417 256.244 572.606 255.244 572.773C254.259 572.924 253.297 573.061 252.358 573.182C251.434 573.288 250.684 573.379 250.108 573.455C248.714 573.636 247.411 573.932 246.199 574.341C245.002 574.735 244.032 575.333 243.29 576.136C242.563 576.924 242.199 578 242.199 579.364C242.199 581.227 242.888 582.636 244.267 583.591C245.661 584.53 247.426 585 249.562 585ZM289.716 554.091V558.636H271.625V554.091H289.716ZM276.898 545.727H282.261V579C282.261 580.515 282.481 581.652 282.92 582.409C283.375 583.152 283.951 583.652 284.648 583.909C285.36 584.152 286.11 584.273 286.898 584.273C287.489 584.273 287.973 584.242 288.352 584.182C288.731 584.106 289.034 584.045 289.261 584L290.352 588.818C289.989 588.955 289.481 589.091 288.83 589.227C288.178 589.379 287.352 589.455 286.352 589.455C284.837 589.455 283.352 589.129 281.898 588.477C280.458 587.826 279.261 586.833 278.307 585.5C277.367 584.167 276.898 582.485 276.898 580.455V545.727ZM297.784 589V554.091H303.148V589H297.784ZM300.511 548.273C299.466 548.273 298.564 547.917 297.807 547.205C297.064 546.492 296.693 545.636 296.693 544.636C296.693 543.636 297.064 542.78 297.807 542.068C298.564 541.356 299.466 541 300.511 541C301.557 541 302.451 541.356 303.193 542.068C303.951 542.78 304.33 543.636 304.33 544.636C304.33 545.636 303.951 546.492 303.193 547.205C302.451 547.917 301.557 548.273 300.511 548.273ZM327.153 589.727C324.002 589.727 321.237 588.977 318.858 587.477C316.494 585.977 314.646 583.879 313.312 581.182C311.994 578.485 311.335 575.333 311.335 571.727C311.335 568.091 311.994 564.917 313.312 562.205C314.646 559.492 316.494 557.386 318.858 555.886C321.237 554.386 324.002 553.636 327.153 553.636C330.305 553.636 333.063 554.386 335.426 555.886C337.805 557.386 339.653 559.492 340.972 562.205C342.305 564.917 342.972 568.091 342.972 571.727C342.972 575.333 342.305 578.485 340.972 581.182C339.653 583.879 337.805 585.977 335.426 587.477C333.063 588.977 330.305 589.727 327.153 589.727ZM327.153 584.909C329.547 584.909 331.517 584.295 333.062 583.068C334.608 581.841 335.752 580.227 336.494 578.227C337.237 576.227 337.608 574.061 337.608 571.727C337.608 569.394 337.237 567.22 336.494 565.205C335.752 563.189 334.608 561.561 333.062 560.318C331.517 559.076 329.547 558.455 327.153 558.455C324.759 558.455 322.79 559.076 321.244 560.318C319.699 561.561 318.555 563.189 317.812 565.205C317.07 567.22 316.699 569.394 316.699 571.727C316.699 574.061 317.07 576.227 317.812 578.227C318.555 580.227 319.699 581.841 321.244 583.068C322.79 584.295 324.759 584.909 327.153 584.909ZM356.523 568V589H351.159V554.091H356.341V559.545H356.795C357.614 557.773 358.856 556.348 360.523 555.273C362.189 554.182 364.341 553.636 366.977 553.636C369.341 553.636 371.409 554.121 373.182 555.091C374.955 556.045 376.333 557.5 377.318 559.455C378.303 561.394 378.795 563.848 378.795 566.818V589H373.432V567.182C373.432 564.439 372.72 562.303 371.295 560.773C369.871 559.227 367.917 558.455 365.432 558.455C363.72 558.455 362.189 558.826 360.841 559.568C359.508 560.311 358.455 561.394 357.682 562.818C356.909 564.242 356.523 565.97 356.523 568Z" fill="black"/>
<path d="M215.7 499.2C267 435 384 279.4 384 192C384 86 298 0 192 0C86 0 0 86 0 192C0 279.4 117 435 168.3 499.2C180.6 514.5 203.4 514.5 215.7 499.2ZM192 128C208.974 128 225.253 134.743 237.255 146.745C249.257 158.747 256 175.026 256 192C256 208.974 249.257 225.253 237.255 237.255C225.253 249.257 208.974 256 192 256C175.026 256 158.747 249.257 146.745 237.255C134.743 225.253 128 208.974 128 192C128 175.026 134.743 158.747 146.745 146.745C158.747 134.743 175.026 128 192 128Z" fill="black"/>
</svg>
