<svg width="384" height="599" viewBox="0 0 384 599" fill="none" xmlns="http://www.w3.org/2000/svg">
<path d="M107.636 585V538.455H123.364C127.015 538.455 130 539.114 132.318 540.432C134.652 541.735 136.379 543.5 137.5 545.727C138.621 547.955 139.182 550.439 139.182 553.182C139.182 555.924 138.621 558.417 137.5 560.659C136.394 562.902 134.682 564.689 132.364 566.023C130.045 567.341 127.076 568 123.455 568H112.182V563H123.273C125.773 563 127.78 562.568 129.295 561.705C130.811 560.841 131.909 559.674 132.591 558.205C133.288 556.72 133.636 555.045 133.636 553.182C133.636 551.318 133.288 549.652 132.591 548.182C131.909 546.712 130.803 545.561 129.273 544.727C127.742 543.879 125.712 543.455 123.182 543.455H113.273V585H107.636ZM147.534 585V550.091H152.898V585H147.534ZM150.261 544.273C149.216 544.273 148.314 543.917 147.557 543.205C146.814 542.492 146.443 541.636 146.443 540.636C146.443 539.636 146.814 538.78 147.557 538.068C148.314 537.356 149.216 537 150.261 537C151.307 537 152.201 537.356 152.943 538.068C153.701 538.78 154.08 539.636 154.08 540.636C154.08 541.636 153.701 542.492 152.943 543.205C152.201 543.917 151.307 544.273 150.261 544.273ZM176.903 585.727C173.631 585.727 170.813 584.955 168.449 583.409C166.085 581.864 164.267 579.735 162.994 577.023C161.722 574.311 161.085 571.212 161.085 567.727C161.085 564.182 161.737 561.053 163.04 558.341C164.358 555.614 166.191 553.485 168.54 551.955C170.903 550.409 173.661 549.636 176.812 549.636C179.267 549.636 181.479 550.091 183.449 551C185.419 551.909 187.032 553.182 188.29 554.818C189.547 556.455 190.328 558.364 190.631 560.545H185.267C184.858 558.955 183.949 557.545 182.54 556.318C181.146 555.076 179.267 554.455 176.903 554.455C174.813 554.455 172.979 555 171.403 556.091C169.843 557.167 168.623 558.689 167.744 560.659C166.881 562.614 166.449 564.909 166.449 567.545C166.449 570.242 166.873 572.591 167.722 574.591C168.585 576.591 169.797 578.144 171.358 579.25C172.934 580.356 174.782 580.909 176.903 580.909C178.297 580.909 179.562 580.667 180.699 580.182C181.835 579.697 182.797 579 183.585 578.091C184.373 577.182 184.934 576.091 185.267 574.818H190.631C190.328 576.879 189.578 578.735 188.381 580.386C187.199 582.023 185.631 583.326 183.676 584.295C181.737 585.25 179.479 585.727 176.903 585.727ZM203.472 572.273L203.381 565.636H204.472L219.744 550.091H226.381L210.108 566.545H209.653L203.472 572.273ZM198.472 585V538.455H203.835V585H198.472ZM220.653 585L207.017 567.727L210.835 564L227.472 585H220.653ZM255.284 570.727V550.091H260.648V585H255.284V579.091H254.92C254.102 580.864 252.83 582.371 251.102 583.614C249.375 584.841 247.193 585.455 244.557 585.455C242.375 585.455 240.436 584.977 238.739 584.023C237.042 583.053 235.708 581.598 234.739 579.659C233.769 577.705 233.284 575.242 233.284 572.273V550.091H238.648V571.909C238.648 574.455 239.36 576.485 240.784 578C242.223 579.515 244.057 580.273 246.284 580.273C247.617 580.273 248.973 579.932 250.352 579.25C251.746 578.568 252.913 577.523 253.852 576.114C254.807 574.705 255.284 572.909 255.284 570.727ZM270.472 598.091V550.091H275.653V555.636H276.29C276.684 555.03 277.229 554.258 277.926 553.318C278.638 552.364 279.653 551.515 280.972 550.773C282.305 550.015 284.108 549.636 286.381 549.636C289.32 549.636 291.911 550.371 294.153 551.841C296.396 553.311 298.146 555.394 299.403 558.091C300.661 560.788 301.29 563.97 301.29 567.636C301.29 571.333 300.661 574.538 299.403 577.25C298.146 579.947 296.403 582.038 294.176 583.523C291.949 584.992 289.381 585.727 286.472 585.727C284.229 585.727 282.434 585.356 281.085 584.614C279.737 583.856 278.699 583 277.972 582.045C277.244 581.076 276.684 580.273 276.29 579.636H275.835V598.091H270.472ZM275.744 567.545C275.744 570.182 276.131 572.508 276.903 574.523C277.676 576.523 278.805 578.091 280.29 579.227C281.775 580.348 283.593 580.909 285.744 580.909C287.987 580.909 289.858 580.318 291.358 579.136C292.873 577.939 294.009 576.333 294.767 574.318C295.54 572.288 295.926 570.03 295.926 567.545C295.926 565.091 295.547 562.879 294.79 560.909C294.047 558.924 292.919 557.356 291.403 556.205C289.903 555.038 288.017 554.455 285.744 554.455C283.563 554.455 281.729 555.008 280.244 556.114C278.759 557.205 277.638 558.735 276.881 560.705C276.123 562.659 275.744 564.939 275.744 567.545Z" fill="black"/>
<path d="M215.7 499.2C267 435 384 279.4 384 192C384 86 298 0 192 0C86 0 0 86 0 192C0 279.4 117 435 168.3 499.2C180.6 514.5 203.4 514.5 215.7 499.2ZM192 128C208.974 128 225.253 134.743 237.255 146.745C249.257 158.747 256 175.026 256 192C256 208.974 249.257 225.253 237.255 237.255C225.253 249.257 208.974 256 192 256C175.026 256 158.747 249.257 146.745 237.255C134.743 225.253 128 208.974 128 192C128 175.026 134.743 158.747 146.745 146.745C158.747 134.743 175.026 128 192 128Z" fill="black"/>
</svg>
